<?xml version="1.0" encoding="UTF-8"?>
<svg id="Layer_1" data-name="Layer 1" xmlns="http://www.w3.org/2000/svg" version="1.1" viewBox="0 0 1080 196.5">
  <defs>
    <style>
      .cls-1 {
        fill: #9e98ca;
      }

      .cls-1, .cls-2 {
        stroke-width: 0px;
      }

      .cls-2 {
        fill: #fff;
      }
    </style>
  </defs>
  <g>
    <path class="cls-2" d="M511.8,192.6v-54.6h30v54.6h-30Z"/>
    <path class="cls-2" d="M680.9,196.5c-13.6,0-25.6-2.8-36.2-8.4s-18.8-13.6-24.9-24.1c-6.1-10.4-9.1-22.8-9.1-37.1v-4.1c0-14.3,3-26.6,9.1-37,6.1-10.4,14.4-18.4,24.9-24.1,10.5-5.7,22.6-8.5,36.2-8.5s25.7,2.9,36.3,8.5c10.6,5.7,19,13.7,25,24.1,6.1,10.4,9.1,22.7,9.1,37v4.1c0,14.3-3,26.7-9.1,37.1-6.1,10.5-14.4,18.5-25,24.1-10.6,5.6-22.7,8.4-36.3,8.4ZM680.9,171.1c12.5,0,22.6-4,30.4-12,7.8-8,11.7-19,11.7-33.2v-2.5c0-14.1-3.9-25.2-11.6-33.2-7.7-8-17.9-12-30.5-12s-22.3,4-30.1,12c-7.8,8-11.7,19-11.7,33.2v2.5c0,14.1,3.9,25.2,11.7,33.2,7.8,8,17.8,12,30.1,12Z"/>
    <path class="cls-2" d="M814.9,136.2v56.4h-28.3V0h28.3v136.2Z"/>
    <path class="cls-2" d="M1015.6,196.5c-13.8,0-25.8-2.9-36-8.7-10.3-5.8-18.3-13.9-24.1-24.5-5.8-10.5-8.7-22.8-8.7-36.7v-3.3c0-14.1,2.8-26.5,8.5-37,5.7-10.5,13.6-18.7,23.8-24.5,10.2-5.8,22-8.7,35.4-8.7s24.4,2.9,34.3,8.7c9.8,5.8,17.5,13.8,23,24.1,5.5,10.3,8.3,22.3,8.3,36v10.7h-104.3c.4,11.9,4.4,21.4,12,28.5,7.6,7.1,17.1,10.6,28.5,10.6s18.7-2.4,24.1-7.2c5.4-4.8,9.6-10.3,12.5-16.5l23.4,12.1c-2.6,5.1-6.3,10.6-11.1,16.2-4.9,5.7-11.2,10.5-19.1,14.3-7.9,3.9-18,5.8-30.3,5.8ZM976,110.9h75.1c-.7-10.3-4.4-18.3-11-24.1-6.6-5.8-15.2-8.7-25.9-8.7s-19.3,2.9-26,8.7c-6.7,5.8-10.8,13.8-12.2,24.1Z"/>
    <path class="cls-1" d="M834.3,135.9c.1-10.2.2-16,.3-26.1h0s53.4-52.8,53.4-52.8h37.7l-68.5,65.8,70.7,69.9h-37.4l-55.9-56.4-.3-.3Z"/>
    <polygon class="cls-2" points="445 0 478.5 0 526.8 87.2 575.1 0 608.7 0 541.8 122.7 511.8 122.7 445 0"/>
  </g>
  <path class="cls-1" d="M335.5,196.5c5.6-6.7,7-8.3,12.7-15L283.3,0l-.5.2v-.2s-36.1,11.6-36.1,11.6l9,30.3,18.6,8.8,37.3,104.4c-15.6,3.4-68.3-6.9-85-10.3l-22.1-50.3h-60.7l-22.1,50.4c-17.6,3.6-70.1,13.8-85,10.1h0l37.4-104.6,18-8.5,9-30.3L64.9,0,0,181.5c5.6,6.7,7,8.3,12.7,15l154.1-27.5h14.5l154.1,27.5Z"/>
</svg>